<?xml version="1.0" encoding="UTF-8"?>
<svg id="Layer_1" xmlns="http://www.w3.org/2000/svg" xmlns:xlink="http://www.w3.org/1999/xlink" version="1.1" viewBox="0 0 792 612">
  <!-- Generator: Adobe Illustrator 30.4.0, SVG Export Plug-In . SVG Version: 2.1.4 Build 226)  -->
  <defs>
    <style>
      .st0, .st1, .st2, .st3 {
        fill: none;
      }

      .st1 {
        stroke-width: 1.98px;
      }

      .st1, .st2, .st3 {
        stroke-miterlimit: 10;
      }

      .st1, .st3 {
        stroke: #510c76;
      }

      .st2 {
        stroke: #aca199;
      }

      .st2, .st3 {
        stroke-width: 2.06px;
      }

      .st4 {
        fill: #231f20;
      }

      .st5 {
        fill: #797774;
      }

      .st6 {
        clip-path: url(#clippath);
      }
    </style>
    <clipPath id="clippath">
      <rect class="st0" x="28.69" y="68" width="235.7" height="476"/>
    </clipPath>
  </defs>
  <g class="st6">
    <g>
      <g>
        <path class="st3" d="M61.98,266.08s0,.01,0,.01h.01s0,0,0-.01Z"/>
        <path class="st3" d="M61.99,266.09h-.01c-3.32,14.63-5.12,29.82-5.12,45.45,0,11.07.9,21.91,2.59,32.5,3.25-20.38,9.5-39.74,18.29-57.63-5.65-6.44-10.93-13.2-15.75-20.31Z"/>
        <path class="st3" d="M418.47,244.7c20.13,23.91,34.86,52.47,42.4,83.85,1.55,1.55,3.05,3.14,4.55,4.74.75-7.16,1.16-14.41,1.16-21.76,0-42.49-12.94-81.95-35.08-114.67-2.86,12.62-6.86,24.8-11.94,36.41-.26,3.84-.62,7.65-1.09,11.42Z"/>
        <path class="st3" d="M419.55,233.28c-1.21,2.79-2.48,5.55-3.81,8.27.92,1.04,1.83,2.09,2.73,3.15.47-3.77.83-7.58,1.09-11.42Z"/>
        <path class="st3" d="M103.39,246.55c24.72-30.06,57.84-52.95,95.77-65.1,27.86-33.85,66.38-58.56,110.41-69.1-15.35-3.68-31.37-5.68-47.84-5.68-97.51,0-179.05,68.15-199.74,159.4,0,0,0,0,0,.01,12.91-7.99,26.79-14.55,41.4-19.54Z"/>
        <path class="st3" d="M61.99,266.09c4.82,7.12,10.1,13.87,15.75,20.31,7.02-14.3,15.64-27.67,25.64-39.85-14.61,4.99-28.48,11.55-41.4,19.54Z"/>
        <path class="st3" d="M419.55,233.28c5.08-11.61,9.08-23.8,11.94-36.41-4.9-7.23-10.28-14.11-16.03-20.64,2.99,13.94,4.62,28.4,4.62,43.24,0,4.64-.22,9.24-.52,13.81Z"/>
        <path class="st3" d="M199.15,181.46c19.73-6.32,40.74-9.77,62.57-9.77,61.41,0,116.48,27.06,154.02,69.87,1.33-2.73,2.6-5.48,3.81-8.27.31-4.57.52-9.17.52-13.81,0-14.84-1.63-29.3-4.62-43.24-27.44-31.16-64.18-53.88-105.9-63.87-44.03,10.54-82.55,35.25-110.41,69.1Z"/>
        <path class="st3" d="M61.47,354.79c7.99,37.14,26.06,70.54,51.2,97.21,1.8-17.06,5.69-33.51,11.42-49.05-23.91-11.9-45.14-28.32-62.61-48.15Z"/>
        <path class="st3" d="M59.45,344.04c-.38,2.41-.69,4.84-1,7.26.99,1.18,2.01,2.33,3.02,3.48-.77-3.55-1.44-7.13-2.02-10.75Z"/>
        <path class="st3" d="M124.09,402.94c7.54-20.46,18.28-39.34,31.55-56.12-.33-1.86-.65-3.72-.92-5.59-29.81-12.11-56.1-31.03-76.98-54.83-8.79,17.89-15.04,37.26-18.29,57.63.57,3.61,1.25,7.19,2.02,10.75,17.47,19.83,38.71,36.25,62.61,48.15Z"/>
        <path class="st3" d="M460.87,328.56c-7.54-31.38-22.27-59.95-42.4-83.85-1.94,15.82-5.64,31.09-10.97,45.58,19.83,9.86,37.85,22.81,53.37,38.27Z"/>
        <path class="st3" d="M407.5,290.29c5.33-14.49,9.03-29.76,10.97-45.58-.89-1.06-1.81-2.1-2.73-3.15-7.21,14.66-16.08,28.33-26.41,40.76,6.2,2.37,12.26,5.02,18.17,7.97Z"/>
        <path class="st3" d="M154.73,341.23c.27,1.87.59,3.72.92,5.59,1.05-1.33,2.08-2.67,3.17-3.98-1.37-.52-2.74-1.06-4.08-1.61Z"/>
        <path class="st3" d="M199.15,181.46c-37.93,12.15-71.04,35.03-95.77,65.1,20.05-6.84,41.46-10.66,63.75-10.93,7.89-19.75,18.72-38,32.01-54.16Z"/>
        <path class="st3" d="M167.14,235.62c-22.29.27-43.71,4.09-63.75,10.93-10.01,12.18-18.63,25.55-25.64,39.85,20.88,23.8,47.17,42.72,76.98,54.83-1.42-9.7-2.17-19.6-2.17-29.69,0-26.83,5.21-52.43,14.59-75.92Z"/>
        <path class="st3" d="M169.58,235.56c42.87,0,82.65,13.19,115.54,35.7,10.2-1.56,20.63-2.36,31.25-2.36,25.71,0,50.29,4.78,72.97,13.43,10.33-12.43,19.21-26.11,26.41-40.76-37.55-42.81-92.62-69.87-154.02-69.87-21.83,0-42.84,3.44-62.57,9.77-13.3,16.16-24.12,34.42-32.01,54.16.81,0,1.62-.06,2.44-.06Z"/>
        <path class="st3" d="M285.11,271.26c-32.89-22.5-72.67-35.7-115.54-35.7-.82,0-1.62.05-2.44.06-9.38,23.49-14.59,49.09-14.59,75.92,0,10.09.76,19.99,2.17,29.69,1.35.55,2.71,1.09,4.08,1.61,31.27-37.6,75.74-63.84,126.3-71.58Z"/>
        <path class="st3" d="M460.87,328.56c1.22,5.09,2.27,10.25,3.12,15.48.57-3.56,1.04-7.14,1.43-10.74-1.5-1.6-3-3.2-4.55-4.74Z"/>
        <path class="st3" d="M191.21,431.24c-2.16-2.99-4.23-6.05-6.24-9.16-21.58-3.19-42.05-9.77-60.89-19.15-5.73,15.55-9.62,31.99-11.42,49.05,11.27,11.97,23.98,22.57,37.84,31.55,10.67-19.6,24.48-37.23,40.71-52.3Z"/>
        <path class="st3" d="M155.64,346.82c-13.27,16.78-24.02,35.66-31.55,56.12,18.84,9.38,39.31,15.96,60.89,19.15-14.44-22.46-24.59-47.94-29.34-75.27Z"/>
        <path class="st3" d="M407.5,290.29c-10.39,28.18-26.78,53.44-47.64,74.25,1.96,4.92,3.79,9.9,5.38,15.01,27.82,4.74,53.7,15.1,76.49,29.86,10.9-19.99,18.54-42.03,22.26-65.36-.84-5.23-1.89-10.39-3.12-15.48-15.53-15.46-33.55-28.41-53.37-38.27Z"/>
        <path class="st3" d="M339.35,325.75c8.16,12.07,15.03,25.07,20.51,38.79,20.86-20.81,37.25-46.07,47.64-74.25-5.91-2.95-11.96-5.6-18.17-7.97-14.18,17.03-31.06,31.72-49.98,43.43Z"/>
        <path class="st3" d="M184.98,422.09c2,3.11,4.08,6.17,6.24,9.16,2.79-2.59,5.63-5.12,8.57-7.55-4.98-.37-9.93-.89-14.8-1.6Z"/>
        <path class="st3" d="M365.24,379.54c-1.59-5.1-3.42-10.09-5.38-15.01-4.44,4.43-9.09,8.65-13.92,12.64,6.53.49,12.96,1.27,19.3,2.36Z"/>
        <path class="st3" d="M199.78,423.69c35.47-29.43,81.04-47.14,130.73-47.14,5.2,0,10.33.26,15.42.63,4.83-4,9.48-8.22,13.92-12.64-5.48-13.72-12.35-26.72-20.51-38.79-31.28,19.34-68.12,30.53-107.58,30.53-25.71,0-50.29-4.78-72.96-13.43-1.09,1.31-2.12,2.65-3.17,3.98,4.75,27.33,14.9,52.81,29.34,75.27,4.88.72,9.83,1.23,14.8,1.6Z"/>
        <path class="st3" d="M389.33,282.32c-22.68-8.64-47.25-13.43-72.97-13.43-10.62,0-21.06.81-31.25,2.36,21.33,14.59,39.75,33.09,54.24,54.49,18.92-11.71,35.8-26.39,49.98-43.43Z"/>
        <path class="st3" d="M285.11,271.26c-50.56,7.75-95.03,33.99-126.3,71.58,22.67,8.65,47.25,13.43,72.96,13.43,39.47,0,76.31-11.19,107.58-30.53-14.49-21.4-32.91-39.89-54.24-54.49Z"/>
        <path class="st3" d="M309.56,510.73c-48.4-11.58-90.1-40.34-118.35-79.48-16.22,15.07-30.03,32.7-40.71,52.3,32.03,20.76,70.2,32.86,111.21,32.86,16.48,0,32.5-2,47.84-5.67Z"/>
        <path class="st3" d="M369.32,485.86c30.28-18.73,55.33-45.11,72.41-76.46-22.79-14.76-48.67-25.12-76.49-29.86,5.98,19.23,9.2,39.69,9.2,60.88,0,15.62-1.81,30.82-5.12,45.44Z"/>
        <path class="st3" d="M215.22,424.33c-5.2,0-10.33-.27-15.44-.64-2.94,2.43-5.78,4.96-8.57,7.55,28.25,39.15,69.95,67.9,118.35,79.48,21.42-5.13,41.54-13.6,59.76-24.86,3.31-14.62,5.12-29.82,5.12-45.44,0-21.2-3.22-41.65-9.2-60.88-6.34-1.09-12.77-1.87-19.3-2.36-35.47,29.44-81.02,47.15-130.72,47.15Z"/>
        <path class="st3" d="M345.94,377.18c-5.09-.37-10.23-.63-15.42-.63-49.69,0-95.26,17.71-130.73,47.14,5.11.37,10.24.64,15.44.64,49.7,0,95.25-17.7,130.72-47.15Z"/>
      </g>
      <g>
        <path class="st2" d="M435.11,202.45s0,0,0-.02c0,0,0,0,0,.01t.02,0Z"/>
        <path class="st2" d="M435.09,202.45s0,0,0-.01c-8.01-12.69-17.47-24.71-28.52-35.76-7.82-7.82-16.13-14.85-24.82-21.15,12.11,16.71,21.38,34.82,27.83,53.7,8.54.56,17.06,1.6,25.5,3.22Z"/>
        <path class="st2" d="M198.15,469.63c-31.14-2.67-61.76-12.44-89.28-29.31-2.19.01-4.38-.07-6.56-.13,4.52,5.59,9.36,11,14.56,16.2,30.05,30.04,67.09,48.81,105.88,56.28-6.89-10.94-12.68-22.39-17.31-34.19-2.52-2.89-4.96-5.84-7.29-8.85Z"/>
        <path class="st2" d="M205.44,478.48c-1.1-2.82-2.17-5.68-3.14-8.54-1.38-.09-2.77-.18-4.15-.3,2.34,3.01,4.77,5.96,7.29,8.85Z"/>
        <path class="st2" d="M419.63,245.54c3.79,38.73-3.46,78.33-21.68,113.74,4.24,43.63-5.53,88.35-29.21,126.93,13.45-8.26,26.18-18.16,37.84-29.82,68.96-68.95,78.42-174.79,28.53-253.94t-.02,0c-3.48,14.78-8.65,29.23-15.46,43.09Z"/>
        <path class="st2" d="M435.09,202.45c-8.44-1.62-16.96-2.66-25.5-3.22,5.15,15.07,8.51,30.61,10.04,46.31,6.81-13.86,11.98-28.31,15.46-43.09Z"/>
        <path class="st2" d="M205.44,478.48c4.63,11.8,10.42,23.26,17.31,34.19,8.58,1.66,17.24,2.71,25.94,3.26-11.98-7.74-23.34-16.83-33.84-27.32-3.28-3.3-6.38-6.68-9.41-10.14Z"/>
        <path class="st2" d="M397.95,359.28c-9.48,18.42-21.9,35.71-37.34,51.14-43.41,43.43-101.49,63.23-158.32,59.51.98,2.87,2.04,5.72,3.14,8.54,3.03,3.45,6.13,6.84,9.41,10.14,10.5,10.49,21.86,19.58,33.84,27.32,41.43,2.62,83.48-7.28,120.05-29.72,23.67-38.58,33.45-83.29,29.21-126.93Z"/>
        <path class="st2" d="M372.74,139.37c-31.92-20.63-68.31-31.46-104.95-32.54,10.8,13.34,19.68,27.72,26.62,42.76,25.32-8.49,51.95-11.89,78.33-10.22Z"/>
        <path class="st2" d="M381.76,145.53c-1.43-1.97-2.92-3.91-4.43-5.84-1.53-.13-3.06-.22-4.59-.32,3.04,1.96,6.06,4.01,9.02,6.16Z"/>
        <path class="st2" d="M294.41,149.59c9.13,19.79,14.89,40.74,17.38,62,1.53,1.08,3.08,2.17,4.59,3.3,29.64-12.51,61.61-17.73,93.21-15.66-6.45-18.87-15.72-36.98-27.83-53.7-2.96-2.15-5.97-4.2-9.02-6.16-26.38-1.67-53.01,1.72-78.33,10.22Z"/>
        <path class="st2" d="M108.87,440.32c27.52,16.87,58.14,26.64,89.28,29.31-9.81-12.55-18-25.97-24.46-39.98-21,7.04-42.9,10.62-64.81,10.67Z"/>
        <path class="st2" d="M173.68,429.65c6.46,14.01,14.65,27.43,24.46,39.98,1.38.12,2.77.21,4.15.3-5.27-15.45-8.67-31.4-10.14-47.51-6.07,2.71-12.23,5.12-18.47,7.23Z"/>
        <path class="st2" d="M316.38,214.88c-1.51-1.13-3.06-2.22-4.59-3.3.2,1.68.4,3.36.56,5.04,1.34-.6,2.68-1.18,4.03-1.75Z"/>
        <path class="st2" d="M397.95,359.28c18.23-35.41,25.47-75.01,21.68-113.74-9.33,19-21.77,36.85-37.35,52.81,8.39,19.54,13.64,40.1,15.66,60.94Z"/>
        <path class="st2" d="M382.29,298.35c15.58-15.95,28.01-33.81,37.35-52.81-1.53-15.7-4.89-31.24-10.04-46.31-31.6-2.07-63.56,3.14-93.21,15.66,7.86,5.86,15.4,12.33,22.53,19.46,18.97,18.97,33.4,40.76,43.37,64Z"/>
        <path class="st2" d="M380.6,300.11c-30.31,30.3-67.76,49.11-106.94,56.45-6.11,8.31-12.9,16.26-20.43,23.78-18.18,18.18-38.94,32.16-61.08,42.09,1.48,16.11,4.87,32.05,10.14,47.51,56.83,3.72,114.9-16.08,158.32-59.51,15.44-15.43,27.85-32.73,37.34-51.14-2.02-20.83-7.28-41.39-15.66-60.94-.58.58-1.1,1.19-1.69,1.77Z"/>
        <path class="st2" d="M273.66,356.56c39.18-7.34,76.63-26.14,106.94-56.45.59-.58,1.11-1.19,1.69-1.77-9.97-23.25-24.4-45.03-43.37-64-7.13-7.14-14.67-13.6-22.53-19.46-1.35.57-2.69,1.15-4.03,1.75,4.47,48.71-8.41,98.71-38.7,139.93Z"/>
        <path class="st2" d="M108.87,440.32c-4.47-2.73-8.86-5.64-13.15-8.75,2.11,2.92,4.3,5.79,6.59,8.62,2.18.06,4.37.14,6.56.13Z"/>
        <path class="st2" d="M226.93,177.04c3.65.58,7.28,1.28,10.89,2.07,17.52-13,36.63-22.82,56.59-29.52-6.94-15.04-15.81-29.42-26.62-42.76-16.43-.48-32.9,1-49.05,4.45,6.31,21.4,9.01,43.64,8.2,65.76Z"/>
        <path class="st2" d="M311.8,211.59c-2.49-21.26-8.25-42.21-17.38-62-19.95,6.7-39.07,16.52-56.59,29.52,26.09,5.68,51.28,16.51,73.97,32.48Z"/>
        <path class="st2" d="M173.68,429.65c-12.59-27.27-18.87-56.73-18.83-86.19-4.86-2.09-9.68-4.32-14.41-6.8-23.03,16.31-48.65,27.29-75.2,32.96,6.44,21.85,16.6,42.83,30.47,61.95,4.29,3.11,8.68,6.02,13.15,8.75,21.91-.05,43.81-3.63,64.81-10.67Z"/>
        <path class="st2" d="M196.8,356.39c-14.31-2.76-28.37-7.11-41.94-12.93-.04,29.46,6.23,58.92,18.83,86.19,6.25-2.1,12.4-4.51,18.47-7.23-2.03-22.06-.47-44.39,4.64-66.04Z"/>
        <path class="st2" d="M237.82,179.11c-3.61-.79-7.24-1.48-10.89-2.07-.14,3.8-.37,7.61-.72,11.41,3.78-3.26,7.64-6.4,11.61-9.34Z"/>
        <path class="st2" d="M140.45,336.66c4.73,2.48,9.55,4.71,14.41,6.8.01-6.28.31-12.54.9-18.78-4.96,4.27-10.06,8.26-15.31,11.99Z"/>
        <path class="st2" d="M226.22,188.45c-4.27,45.9-23.97,90.63-59.1,125.77-3.68,3.67-7.49,7.12-11.36,10.46-.59,6.24-.88,12.51-.9,18.78,13.57,5.82,27.62,10.17,41.94,12.93,8.43-35.79,26.57-69.75,54.48-97.66,18.17-18.17,38.93-32.18,61.08-42.1-.16-1.69-.36-3.37-.56-5.04-22.69-15.97-47.88-26.8-73.97-32.48-3.96,2.94-7.83,6.08-11.61,9.34Z"/>
        <path class="st2" d="M192.16,422.43c22.14-9.92,42.9-23.91,61.08-42.09,7.52-7.52,14.32-15.47,20.43-23.78-25.4,4.77-51.5,4.72-76.86-.17-5.11,21.65-6.67,43.98-4.64,66.04Z"/>
        <path class="st2" d="M273.66,356.56c30.28-41.23,43.17-91.22,38.7-139.93-22.15,9.92-42.91,23.93-61.08,42.1-27.91,27.91-46.05,61.87-54.48,97.66,25.37,4.89,51.47,4.93,76.86.17Z"/>
        <path class="st2" d="M87.05,204.53c42.42-26.03,92.23-35.19,139.89-27.49.82-22.13-1.89-44.36-8.2-65.76-37.33,7.98-72.87,26.4-101.87,55.4-11.66,11.66-21.56,24.39-29.82,37.85Z"/>
        <path class="st2" d="M62.38,264.35c-8.17,34.65-7.23,71.01,2.87,105.26,26.55-5.66,52.18-16.65,75.2-32.96-17.83-9.38-34.56-21.56-49.56-36.55-11.04-11.06-20.51-23.07-28.51-35.76Z"/>
        <path class="st2" d="M214.85,198.9c3.67-3.68,7.49-7.12,11.36-10.46.35-3.8.57-7.6.72-11.41-47.66-7.71-97.47,1.45-139.89,27.49-11.52,18.77-19.75,38.98-24.67,59.83,8,12.69,17.47,24.7,28.51,35.76,15,14.98,31.73,27.17,49.56,36.55,5.25-3.72,10.35-7.72,15.31-11.99,4.27-45.89,23.96-90.63,59.1-125.77Z"/>
        <path class="st2" d="M155.75,324.68c3.87-3.34,7.69-6.78,11.36-10.46,35.13-35.14,54.83-79.88,59.1-125.77-3.87,3.34-7.69,6.78-11.36,10.46-35.14,35.14-54.83,79.88-59.1,125.77Z"/>
      </g>
    </g>
  </g>
  <g>
    <path class="st4" d="M299.92,152.4h57.66v8.37h-48.6v28.66h43.44v8.25h-43.44v34.96h-9.06v-80.24Z"/>
    <path class="st4" d="M368.24,203.3v-.23c0-16.74,13.07-30.95,30.95-30.95s30.84,13.98,30.84,30.72v.23c0,16.74-13.18,30.95-31.07,30.95s-30.72-13.99-30.72-30.72ZM420.98,203.3v-.23c0-12.72-9.52-23.16-22.01-23.16s-21.67,10.43-21.67,22.93v.23c0,12.72,9.4,23.04,21.9,23.04s21.78-10.32,21.78-22.81Z"/>
    <path class="st4" d="M445.96,173.38h8.83v15.48c4.36-9.86,12.95-16.97,24.19-16.51v9.52h-.69c-12.95,0-23.5,9.28-23.5,27.17v23.61h-8.83v-59.27Z"/>
    <path class="st4" d="M516,226.34c8.14,0,13.87-3.32,18.69-8.37l5.5,4.93c-5.96,6.65-13.18,11.12-24.42,11.12-16.28,0-29.58-12.5-29.58-30.95,0-17.2,12.04-30.95,28.43-30.95,17.54,0,27.63,13.98,27.63,31.41,0,.8,0,1.72-.11,3.09h-47c1.26,12.5,10.43,19.72,20.86,19.72ZM533.31,199.52c-1.03-10.78-7.22-19.95-18.91-19.95-10.2,0-18,8.48-19.26,19.95h38.17Z"/>
    <path class="st4" d="M557.95,150.68h10.09v9.74h-10.09v-9.74ZM558.53,173.38h8.83v59.27h-8.83v-59.27Z"/>
    <path class="st4" d="M587.18,242.96l4.01-6.88c6.76,4.93,14.33,7.57,22.81,7.57,13.07,0,21.55-7.22,21.55-21.09v-6.99c-5.16,6.88-12.38,12.5-23.27,12.5-14.21,0-27.86-10.66-27.86-27.74v-.23c0-17.31,13.76-27.97,27.86-27.97,11.12,0,18.34,5.5,23.16,11.92v-10.66h8.83v48.95c0,9.17-2.75,16.16-7.57,20.98-5.27,5.27-13.18,7.91-22.58,7.91-9.86,0-19.03-2.75-26.94-8.25ZM635.79,200.21v-.23c0-12.15-10.54-20.06-21.78-20.06s-20.52,7.8-20.52,19.95v.23c0,11.92,9.52,20.17,20.52,20.17s21.78-8.14,21.78-20.06Z"/>
    <path class="st4" d="M663.98,173.38h8.83v10.32c3.9-6.42,10.09-11.58,20.29-11.58,14.33,0,22.7,9.63,22.7,23.73v36.8h-8.83v-34.62c0-11-5.96-17.88-16.39-17.88s-17.77,7.45-17.77,18.57v33.93h-8.83v-59.27Z"/>
    <path class="st4" d="M321.47,260.8h-28.54v-3.55h61.1v3.55h-28.66v76.69h-3.9v-76.69Z"/>
    <path class="st4" d="M358.03,279.71h3.67v17.65c3.44-9.86,12.26-19.14,24.53-18.8v3.78h-.57c-13.98,0-23.96,13.53-23.96,27.74v27.4h-3.67v-57.78Z"/>
    <path class="st4" d="M391.75,321.21v-.23c0-12.04,10.89-18.57,25.56-18.57,8.03,0,15.02,1.38,20.63,3.21v-3.9c0-13.07-7.8-19.49-20.63-19.49-7.11,0-13.07,1.95-18.8,4.81l-1.38-3.21c6.42-3.1,12.73-5.04,20.41-5.04s14.1,2.06,18.34,6.31c3.67,3.78,5.73,9.28,5.73,16.39v36h-3.67v-12.04c-2.98,6.3-11.01,13.41-24.3,13.41-11.12,0-21.9-5.96-21.9-17.65ZM438.06,316.17v-7.11c-5.62-1.83-12.26-3.21-20.86-3.21-12.73,0-21.55,5.39-21.55,14.9v.23c0,9.51,8.6,14.44,18.23,14.44,13.98,0,24.19-8.94,24.19-19.26Z"/>
    <path class="st4" d="M458,308.72v-.23c0-17.54,12.95-30.15,28.54-30.15,12.72,0,21.67,7.57,25.56,17.08v-41.61h3.67v83.68h-3.67v-15.93c-4.01,9.63-12.95,17.31-25.56,17.31-15.59,0-28.54-12.5-28.54-30.15ZM512.33,308.72v-.23c0-14.9-11.35-26.6-25.45-26.6s-24.99,11-24.99,26.48v.23c0,15.25,10.66,26.71,24.99,26.71s25.45-11.69,25.45-26.59Z"/>
    <path class="st4" d="M533.08,308.6v-.23c0-16.97,11.69-30.03,27.63-30.03,17.42,0,26.48,14.9,26.48,30.38v1.26h-50.09c.69,15.71,11.81,25.45,24.76,25.45,8.94,0,16.16-4.7,20.75-10.66l2.75,2.18c-5.27,6.88-13.07,11.92-23.61,11.92-15.59,0-28.66-11.81-28.66-30.26ZM583.17,306.65c-.57-12.61-8.25-24.87-22.7-24.87-13.07,0-22.7,10.66-23.39,24.87h46.08Z"/>
    <path class="st4" d="M329.61,361.52h8.48l36.57,80.82h-9.74l-9.4-21.21h-43.68l-9.52,21.21h-9.28l36.57-80.82ZM351.96,412.98l-18.23-40.92-18.34,40.92h36.57Z"/>
    <path class="st4" d="M385.44,452.65l4.01-6.88c6.76,4.93,14.33,7.57,22.81,7.57,13.07,0,21.55-7.22,21.55-21.09v-6.99c-5.16,6.88-12.38,12.49-23.27,12.49-14.21,0-27.86-10.66-27.86-27.74v-.23c0-17.31,13.76-27.97,27.86-27.97,11.12,0,18.34,5.5,23.16,11.92v-10.66h8.83v48.95c0,9.17-2.75,16.16-7.57,20.98-5.27,5.27-13.18,7.91-22.58,7.91-9.86,0-19.03-2.75-26.94-8.25ZM434.04,409.89v-.23c0-12.15-10.54-20.06-21.78-20.06s-20.52,7.8-20.52,19.95v.23c0,11.92,9.52,20.18,20.52,20.18s21.78-8.14,21.78-20.06Z"/>
    <path class="st4" d="M488.37,436.03c8.14,0,13.87-3.32,18.69-8.37l5.5,4.93c-5.96,6.65-13.18,11.12-24.42,11.12-16.28,0-29.58-12.49-29.58-30.95,0-17.2,12.04-30.95,28.43-30.95,17.54,0,27.63,13.98,27.63,31.41,0,.8,0,1.72-.11,3.09h-47c1.26,12.5,10.43,19.72,20.86,19.72ZM505.68,409.2c-1.03-10.77-7.22-19.95-18.92-19.95-10.2,0-18,8.48-19.26,19.95h38.17Z"/>
    <path class="st4" d="M530.09,383.06h8.83v10.32c3.9-6.42,10.09-11.58,20.29-11.58,14.33,0,22.7,9.63,22.7,23.73v36.8h-8.83v-34.62c0-11.01-5.96-17.88-16.39-17.88s-17.77,7.45-17.77,18.57v33.93h-8.83v-59.27Z"/>
    <path class="st4" d="M597.04,412.98v-.23c0-16.74,13.07-30.95,30.38-30.95,11.23,0,18.23,4.7,23.73,10.55l-5.85,6.19c-4.7-4.93-9.97-8.94-18-8.94-12.04,0-21.21,10.2-21.21,22.93v.23c0,12.84,9.4,23.04,21.78,23.04,7.57,0,13.41-3.78,18.11-8.83l5.62,5.27c-5.96,6.65-13.07,11.46-24.19,11.46-17.31,0-30.38-14.1-30.38-30.72Z"/>
    <path class="st4" d="M662.16,458.04l2.98-6.99c2.87,1.49,5.5,2.18,9.29,2.18,5.27,0,8.6-2.75,12.15-11.12l-26.94-59.04h9.74l21.55,49.41,19.03-49.41h9.4l-24.87,61.21c-5.04,12.27-10.77,16.74-19.72,16.74-4.93,0-8.6-1.03-12.61-2.98Z"/>
  </g>
  <line class="st1" x1="294.41" y1="474.28" x2="763.31" y2="474.28"/>
  <path class="st5" d="M726.99,180.68v-.08c0-8.9,7.22-16.35,16.38-16.35s16.3,7.36,16.3,16.24v.1c0,8.88-7.23,16.33-16.39,16.33s-16.29-7.36-16.29-16.25ZM757.78,180.6v-.1c0-7.98-6.18-14.44-14.41-14.44s-14.48,6.54-14.48,14.54v.08c0,7.99,6.18,14.44,14.4,14.44s14.49-6.54,14.49-14.52ZM736.61,171.43h7.71c2.36,0,4.16.67,5.38,1.89.96.95,1.44,2.26,1.44,3.79v.09c0,2.8-1.54,4.56-3.74,5.38l4.26,6.23h-4.48l-3.71-5.6h-3.02v5.6h-3.83v-17.38ZM744.29,179.91c1.93,0,2.97-1.04,2.97-2.48v-.09c0-1.67-1.19-2.52-3.08-2.52h-3.74v5.09h3.85Z"/>
</svg>